<?xml version="1.0" encoding="UTF-8"?>
<svg version="1.1" xmlns="http://www.w3.org/2000/svg" width="641" height="483">
<path d="M0 0 C53.79 0 107.58 0 163 0 C163 57.42 163 114.84 163 174 C155.41 174 147.82 174 140 174 C139.67 124.83 139.34 75.66 139 25 C124.15 25 109.3 25 94 25 C94.01047363 29.44259277 94.02094727 33.88518555 94.03173828 38.46240234 C94.06481178 53.10680378 94.08704482 67.75120664 94.10362434 82.3956356 C94.11394766 91.27842484 94.12802809 100.16117875 94.15087891 109.04394531 C94.17078055 116.78395664 94.18370875 124.5239424 94.18817699 132.2639786 C94.19078986 136.36426433 94.196953 140.46447689 94.21146011 144.56473923 C94.22499314 148.42077767 94.22923137 152.27671251 94.22621536 156.13277245 C94.22676745 157.55098851 94.23077034 158.9692079 94.23841095 160.38740349 C94.24830474 162.3178446 94.24479053 164.24834078 94.24050903 166.17880249 C94.24235262 167.26098745 94.24419621 168.34317242 94.24609566 169.45815086 C94 172 94 172 92 174 C84.41 174 76.82 174 69 174 C68.67 124.83 68.34 75.66 68 25 C48.2 24.505 48.2 24.505 28 24 C28 24.66 28 25.32 28 26 C26.35 26 24.7 26 23 26 C23 86.72 23 147.44 23 210 C15.41 210 7.82 210 0 210 C0 140.7 0 71.4 0 0 Z " fill="#FF3E4F" transform="translate(222,78)"/>
<path d="M0 0 C7.59 0 15.18 0 23 0 C24.12500624 7.87504367 24.12500624 7.87504367 24.11022377 11.01325035 C24.1089103 12.08870017 24.1089103 12.08870017 24.10757029 13.18587625 C24.10144862 13.9507758 24.09532695 14.71567534 24.08901978 15.50375366 C24.08649621 16.33390665 24.08397265 17.16405963 24.08137262 18.01936877 C24.07168987 20.78688238 24.05465064 23.55430008 24.03759766 26.32177734 C24.02908625 28.31130802 24.0210154 30.30084063 24.01335144 32.29037476 C23.99119999 37.68244817 23.96252358 43.07446863 23.93239641 48.46650267 C23.90170987 54.10612233 23.87610473 59.74576547 23.84970093 65.38540649 C23.80455039 74.84924443 23.75506826 84.31305254 23.703125 93.77685547 C23.64305587 104.73269167 23.5903111 115.68854517 23.54135668 126.64443624 C23.49409625 137.17529118 23.44125775 147.70611128 23.38599777 158.23692703 C23.3625766 162.72416124 23.34121227 167.2113984 23.32149124 171.69865036 C23.29808946 176.97308295 23.26985481 182.24746751 23.23780251 187.5218544 C23.22680808 189.46295021 23.21752823 191.40405656 23.21003914 193.34516907 C23.19958919 195.98287925 23.18308337 198.62048136 23.16494751 201.25814819 C23.16245717 202.42557401 23.16245717 202.42557401 23.15991652 203.61658418 C23.11415162 208.88584838 23.11415162 208.88584838 22 210 C19.92439194 210.09683581 17.84542796 210.12186902 15.76756287 210.12025452 C14.78249504 210.12153854 14.78249504 210.12153854 13.77752686 210.12284851 C11.55405017 210.12451324 9.33064761 210.1189647 7.10717773 210.11352539 C5.4950743 210.11321929 3.88297072 210.11335215 2.27086735 210.11389065 C-2.06136371 210.11411718 -6.39356736 210.10830516 -10.72579193 210.10128021 C-14.78525381 210.09560151 -18.84470888 210.09531798 -22.9041748 210.09460449 C-34.79028686 210.08934911 -46.67639377 210.07538807 -58.5625 210.0625 C-85.106875 210.041875 -111.65125 210.02125 -139 210 C-139 152.58 -139 95.16 -139 36 C-131.41 36 -123.82 36 -116 36 C-116 85.17 -116 134.34 -116 185 C-100.82 185 -85.64 185 -70 185 C-70.00523682 180.77058594 -70.01047363 176.54117188 -70.01586914 172.18359375 C-70.03243875 158.20978038 -70.04353571 144.23596662 -70.05181217 130.262146 C-70.05696379 121.78983051 -70.06398486 113.31752435 -70.07543945 104.84521484 C-70.08542096 97.45892804 -70.09186168 90.072648 -70.09408849 82.68635464 C-70.09538971 78.77704978 -70.09843825 74.86776423 -70.10573006 70.95846558 C-70.112545 67.27479156 -70.11460586 63.59114471 -70.11310768 59.90746498 C-70.1135116 57.9194415 -70.11887817 55.93142095 -70.12442017 53.94340515 C-70.1230455 52.74601212 -70.12167084 51.54861908 -70.12025452 50.31494141 C-70.12117631 49.28253326 -70.1220981 48.25012512 -70.12304783 47.18643188 C-69.97843936 43.44166828 -69.46482695 39.7186156 -69 36 C-61.41 36 -53.82 36 -46 36 C-45.67 84.84 -45.34 133.68 -45 184 C-30.48 184 -15.96 184 -1 184 C-0.67 123.28 -0.34 62.56 0 0 Z " fill="#FF3F51" transform="translate(396,78)"/>
<path d="M0 0 C0 0.99 0 1.98 0 3 C0.66 3.33 1.32 3.66 2 4 C2.39764263 5.98821313 2.72428861 7.99124558 3 10 C3.31674575 11.33737094 3.64270064 12.67288808 4 14 C4.66 14 5.32 14 6 14 C6 14.99 6 15.98 6 17 C6.66 17.66 7.32 18.32 8 19 C7.67 19.99 7.34 20.98 7 22 C7.66 22 8.32 22 9 22 C9.33 24.31 9.66 26.62 10 29 C10.66 29 11.32 29 12 29 C11.67 30.32 11.34 31.64 11 33 C12.485 33.495 12.485 33.495 14 34 C13.67 34.66 13.34 35.32 13 36 C13.66 36 14.32 36 15 36 C15.33 38.64 15.66 41.28 16 44 C16.66 44 17.32 44 18 44 C18.33 45.32 18.66 46.64 19 48 C19.99 47.67 20.98 47.34 22 47 C21.79375 46.4225 21.5875 45.845 21.375 45.25 C20.91338739 42.48032433 21.57055055 41.35438733 23 39 C23.66 39 24.32 39 25 39 C25.66 35.7 26.32 32.4 27 29 C27.66 29 28.32 29 29 29 C29 27.35 29 25.7 29 24 C29.66 24 30.32 24 31 24 C30.79375 23.38125 30.5875 22.7625 30.375 22.125 C30.189375 21.073125 30.189375 21.073125 30 20 C32 18 32 18 34 17 C33.505 15.02 33.505 15.02 33 13 C33.99 12.67 34.98 12.34 36 12 C35.505 10.515 35.505 10.515 35 9 C35.66 9 36.32 9 37 9 C37.33 6.69 37.66 4.38 38 2 C38.66 2 39.32 2 40 2 C40 1.34 40 0.68 40 0 C44.29 0 48.58 0 53 0 C53 21.45 53 42.9 53 65 C50.03 65 47.06 65 44 65 C44 47.51 44 30.02 44 12 C41.99883222 15.60788653 41.99883222 15.60788653 41.5 18.1875 C41.335 18.785625 41.17 19.38375 41 20 C40.01 20.495 40.01 20.495 39 21 C39 21.99 39 22.98 39 24 C38.34 24 37.68 24 37 24 C37.20625 24.61875 37.4125 25.2375 37.625 25.875 C37.810625 26.926875 37.810625 26.926875 38 28 C36 30 36 30 34 31 C34.495 33.475 34.495 33.475 35 36 C34.01 36.495 34.01 36.495 33 37 C33 37.66 33 38.32 33 39 C32.34 39 31.68 39 31 39 C30.855625 40.0725 30.71125 41.145 30.5625 42.25 C29.47058824 49.52941176 29.47058824 49.52941176 27 52 C27 52.99 27 53.98 27 55 C26.34 55 25.68 55 25 55 C24.9175 56.093125 24.835 57.18625 24.75 58.3125 C24 62 24 62 22.25 63.9375 C19.64597372 65.16717908 17.84687774 65.23723981 15 65 C15.33 63.35 15.66 61.7 16 60 C15.34 59.67 14.68 59.34 14 59 C14 58.34 14 57.68 14 57 C13.34 56.34 12.68 55.68 12 55 C12.33 54.01 12.66 53.02 13 52 C12.34 51.67 11.68 51.34 11 51 C11 50.34 11 49.68 11 49 C10.34 48.34 9.68 47.68 9 47 C9.33 46.34 9.66 45.68 10 45 C9.34 44.67 8.68 44.34 8 44 C7.59270772 41.67843403 7.25561323 39.3431213 7 37 C6.34 37 5.68 37 5 37 C5 36.01 5 35.02 5 34 C4.34 33.34 3.68 32.68 3 32 C3.33 31.01 3.66 30.02 4 29 C3.34 29 2.68 29 2 29 C1.87625 28.401875 1.7525 27.80375 1.625 27.1875 C1.04524015 24.73768652 1.04524015 24.73768652 -1 22 C-1 20.68 -1 19.36 -1 18 C-1.66 17.67 -2.32 17.34 -3 17 C-3.625 14.4375 -3.625 14.4375 -4 12 C-4 12.66 -4 13.32 -4 14 C-4 29.66666667 -4 45.33333333 -4 61 C-4.66 61 -5.32 61 -6 61 C-6 62.32 -6 63.64 -6 65 C-7.98 65 -9.96 65 -12 65 C-13.35936938 62.28126124 -13.12718112 60.1409263 -13.12939453 57.09741211 C-13.13254669 55.85950424 -13.13569885 54.62159637 -13.13894653 53.34617615 C-13.13715689 51.98989832 -13.13510597 50.63362082 -13.1328125 49.27734375 C-13.1334858 47.89254235 -13.13445605 46.50774106 -13.13571167 45.12294006 C-13.13718691 42.22021357 -13.13503934 39.31751784 -13.13037109 36.41479492 C-13.12466858 32.6864703 -13.12795719 28.95821758 -13.13394356 25.22989559 C-13.13754933 22.37068638 -13.13641061 19.51149434 -13.13381577 16.65228462 C-13.13314682 15.27710525 -13.13397381 13.90192433 -13.13629532 12.52674675 C-13.13882264 10.60889591 -13.13429053 8.69103962 -13.12939453 6.77319336 C-13.12859894 5.68002304 -13.12780334 4.58685272 -13.12698364 3.46055603 C-13 1 -13 1 -12 0 C-10.54998009 -0.25996373 -9.08877907 -0.45919978 -7.625 -0.625 C-6.83351563 -0.72039062 -6.04203125 -0.81578125 -5.2265625 -0.9140625 C-3 -1 -3 -1 0 0 Z " fill="#3E3E40" transform="translate(73,331)"/>
<path d="M0 0 C1.51400391 0.01740234 1.51400391 0.01740234 3.05859375 0.03515625 C4.07050781 0.04417969 5.08242188 0.05320312 6.125 0.0625 C7.29869141 0.07990234 7.29869141 0.07990234 8.49609375 0.09765625 C8.78484375 0.73703125 9.07359375 1.37640625 9.37109375 2.03515625 C10.32432826 4.24971704 10.32432826 4.24971704 12.49609375 5.09765625 C12.49609375 6.41765625 12.49609375 7.73765625 12.49609375 9.09765625 C13.48609375 9.42765625 14.47609375 9.75765625 15.49609375 10.09765625 C15.49609375 10.75765625 15.49609375 11.41765625 15.49609375 12.09765625 C15.94984375 12.51015625 16.40359375 12.92265625 16.87109375 13.34765625 C18.49609375 15.09765625 18.49609375 15.09765625 19.49609375 18.16015625 C20.25943487 21.37964517 20.25943487 21.37964517 23.49609375 23.09765625 C25.11394502 25.73730832 25.49609375 26.937783 25.49609375 30.09765625 C26.81609375 30.42765625 28.13609375 30.75765625 29.49609375 31.09765625 C29.16609375 32.08765625 28.83609375 33.07765625 28.49609375 34.09765625 C29.15609375 34.09765625 29.81609375 34.09765625 30.49609375 34.09765625 C30.61984375 34.90203125 30.74359375 35.70640625 30.87109375 36.53515625 C31.07734375 37.38078125 31.28359375 38.22640625 31.49609375 39.09765625 C32.48609375 39.59265625 32.48609375 39.59265625 33.49609375 40.09765625 C34.48609375 40.75765625 35.47609375 41.41765625 36.49609375 42.09765625 C36.49609375 43.41765625 36.49609375 44.73765625 36.49609375 46.09765625 C37.48609375 46.59265625 37.48609375 46.59265625 38.49609375 47.09765625 C38.82609375 48.08765625 39.15609375 49.07765625 39.49609375 50.09765625 C40.15609375 50.75765625 40.81609375 51.41765625 41.49609375 52.09765625 C41.82609375 52.75765625 42.15609375 53.41765625 42.49609375 54.09765625 C42.49609375 36.60765625 42.49609375 19.11765625 42.49609375 1.09765625 C45.46609375 1.09765625 48.43609375 1.09765625 51.49609375 1.09765625 C51.49609375 22.54765625 51.49609375 43.99765625 51.49609375 66.09765625 C48.19609375 66.09765625 44.89609375 66.09765625 41.49609375 66.09765625 C40.50609375 65.10765625 39.51609375 64.11765625 38.49609375 63.09765625 C38.99109375 62.10765625 38.99109375 62.10765625 39.49609375 61.09765625 C38.17609375 60.76765625 36.85609375 60.43765625 35.49609375 60.09765625 C35.35171875 59.49953125 35.20734375 58.90140625 35.05859375 58.28515625 C33.99873764 53.92535403 33.99873764 53.92535403 30.49609375 51.09765625 C28.87824248 48.45800418 28.49609375 47.2575295 28.49609375 44.09765625 C27.17609375 43.43765625 25.85609375 42.77765625 24.49609375 42.09765625 C24.82609375 41.43765625 25.15609375 40.77765625 25.49609375 40.09765625 C24.01109375 39.60265625 24.01109375 39.60265625 22.49609375 39.09765625 C22.49609375 37.77765625 22.49609375 36.45765625 22.49609375 35.09765625 C21.17609375 34.76765625 19.85609375 34.43765625 18.49609375 34.09765625 C18.82609375 33.10765625 19.15609375 32.11765625 19.49609375 31.09765625 C18.83609375 31.09765625 18.17609375 31.09765625 17.49609375 31.09765625 C17.37234375 30.29328125 17.24859375 29.48890625 17.12109375 28.66015625 C16.91484375 27.81453125 16.70859375 26.96890625 16.49609375 26.09765625 C15.83609375 25.76765625 15.17609375 25.43765625 14.49609375 25.09765625 C11.51037279 22.70907948 11.17277929 20.77109202 10.49609375 17.09765625 C9.83609375 16.76765625 9.17609375 16.43765625 8.49609375 16.09765625 C7.87109375 14.03515625 7.87109375 14.03515625 7.49609375 12.09765625 C6.50609375 12.09765625 5.51609375 12.09765625 4.49609375 12.09765625 C4.82609375 12.75765625 5.15609375 13.41765625 5.49609375 14.09765625 C5.59460991 16.42932924 5.62688042 18.76390385 5.62890625 21.09765625 C5.63022552 21.80181671 5.6315448 22.50597717 5.63290405 23.23147583 C5.63482145 25.52024734 5.62849089 27.8088972 5.62109375 30.09765625 C5.62020752 30.86865662 5.61932129 31.63965698 5.6184082 32.434021 C5.60312038 43.68144691 5.39088164 54.8808509 4.49609375 66.09765625 C1.85609375 66.09765625 -0.78390625 66.09765625 -3.50390625 66.09765625 C-3.52703284 57.63998291 -3.54482295 49.18232269 -3.55571842 40.72462559 C-3.56094656 36.79776967 -3.56804294 32.87093531 -3.5793457 28.9440918 C-3.59017705 25.15751368 -3.59618361 21.37095635 -3.59878349 17.58436394 C-3.6006373 16.13661306 -3.60425706 14.68886337 -3.60963631 13.24112129 C-3.61684992 11.2200849 -3.61731433 9.19902777 -3.61743164 7.17797852 C-3.61965225 6.02548111 -3.62187286 4.8729837 -3.62416077 3.68556213 C-3.46469055 0.25372502 -3.4272832 0.13366939 0 0 Z " fill="#454646" transform="translate(459.50390625,329.90234375)"/>
<path d="M0 0 C0.33 0.66 0.66 1.32 1 2 C2.65 2 4.3 2 6 2 C6.433125 2.9590625 6.433125 2.9590625 6.875 3.9375 C7.82823451 6.15206079 7.82823451 6.15206079 10 7 C10 7.66 10 8.32 10 9 C10.66 9.33 11.32 9.66 12 10 C11.58067175 21.78312384 11.58067175 21.78312384 7 27 C4.25 29.375 4.25 29.375 2 31 C3.32 31.33 4.64 31.66 6 32 C6 32.66 6 33.32 6 34 C6.66 34 7.32 34 8 34 C8 34.66 8 35.32 8 36 C8.99 36.33 9.98 36.66 11 37 C11.69937532 38.31647119 12.36729133 39.65022151 13 41 C13.99 41.495 13.99 41.495 15 42 C15.05391993 43.79133978 15.09275571 45.58313899 15.125 47.375 C15.14820313 48.37273437 15.17140625 49.37046875 15.1953125 50.3984375 C15 53 15 53 13 55 C12.01 55.495 12.01 55.495 11 56 C11 57.32 11 58.64 11 60 C7.3321148 61.96189209 4.12751449 63.39301257 0 64 C0 64.66 0 65.32 0 66 C-9.24 66 -18.48 66 -28 66 C-28 44.55 -28 23.1 -28 1 C-2 0 -2 0 0 0 Z M-20 7 C-21.20217503 9.40435006 -21.03897118 10.68381369 -20.87890625 13.3515625 C-20.83056641 14.20234375 -20.78222656 15.053125 -20.73242188 15.9296875 C-20.67634766 16.81914062 -20.62027344 17.70859375 -20.5625 18.625 C-20.51029297 19.5221875 -20.45808594 20.419375 -20.40429688 21.34375 C-20.2744565 23.56284012 -20.13948661 25.78149871 -20 28 C-17.22858283 28.08089542 -14.45952181 28.14044062 -11.6875 28.1875 C-10.90181641 28.21263672 -10.11613281 28.23777344 -9.30664062 28.26367188 C-8.54931641 28.27333984 -7.79199219 28.28300781 -7.01171875 28.29296875 C-6.31522217 28.3086792 -5.61872559 28.32438965 -4.90112305 28.34057617 C-2.4503633 27.90153548 -1.65975701 26.78949463 0 25 C0.66 25 1.32 25 2 25 C2 24.34 2 23.68 2 23 C2.66 22.67 3.32 22.34 4 22 C4.43295779 14.96636824 4.43295779 14.96636824 1 9 C-0.32 9 -1.64 9 -3 9 C-3 8.34 -3 7.68 -3 7 C-8.61 7 -14.22 7 -20 7 Z M-20 34 C-21.27861615 36.55723229 -21.11336609 38.36737102 -21.09765625 41.2265625 C-21.09443359 42.2578125 -21.09121094 43.2890625 -21.08789062 44.3515625 C-21.07951172 45.43179688 -21.07113281 46.51203125 -21.0625 47.625 C-21.05798828 48.71296875 -21.05347656 49.8009375 -21.04882812 50.921875 C-21.0370179 53.61460662 -21.01908205 56.30731009 -21 59 C-16.71 59 -12.42 59 -8 59 C-8 58.34 -8 57.68 -8 57 C-6.783125 57.268125 -5.56625 57.53625 -4.3125 57.8125 C-2.12757374 58.15985433 -2.12757374 58.15985433 0 58 C3.74653613 55.06792824 6.74424521 51.96078674 7.375 47.125 C6.91447681 43.28730672 5.70407897 41.70407897 3 39 C2.34 39 1.68 39 1 39 C0.67 37.68 0.34 36.36 0 35 C-1.32 35.33 -2.64 35.66 -4 36 C-4 35.34 -4 34.68 -4 34 C-9.28 34 -14.56 34 -20 34 Z " fill="#3E3F3F" transform="translate(366,330)"/>
<path d="M0 0 C1.60279192 0.00015914 3.20558896 0.00585476 4.80834961 0.01586914 C5.65038437 0.01728409 6.49241913 0.01869904 7.35997009 0.02015686 C10.06024671 0.02577276 12.76044163 0.03832791 15.46069336 0.05102539 C17.28686404 0.05603834 19.11303602 0.06060161 20.93920898 0.06469727 C25.42556878 0.07574735 29.9118672 0.0930226 34.39819336 0.11352539 C35.39819336 2.11352539 35.39819336 2.11352539 34.39819336 6.11352539 C24.16819336 6.11352539 13.93819336 6.11352539 3.39819336 6.11352539 C3.72819336 6.77352539 4.05819336 7.43352539 4.39819336 8.11352539 C4.48161495 9.56201121 4.50552197 11.01423408 4.49584961 12.46508789 C4.49335205 13.23159668 4.49085449 13.99810547 4.48828125 14.7878418 C4.47917725 15.76156738 4.47007324 16.73529297 4.46069336 17.73852539 C4.44006836 20.83227539 4.41944336 23.92602539 4.39819336 27.11352539 C12.64819336 27.44352539 20.89819336 27.77352539 29.39819336 28.11352539 C29.39819336 27.45352539 29.39819336 26.79352539 29.39819336 26.11352539 C31.39819336 26.11352539 31.39819336 26.11352539 33.02319336 27.23852539 C34.39819336 29.11352539 34.39819336 29.11352539 34.39819336 35.11352539 C24.16819336 34.78352539 13.93819336 34.45352539 3.39819336 34.11352539 C3.72819336 35.10352539 4.05819336 36.09352539 4.39819336 37.11352539 C4.47885556 38.59476086 4.50580529 40.07934743 4.49584961 41.56274414 C4.49262695 42.41030273 4.4894043 43.25786133 4.48608398 44.13110352 C4.47770508 45.01217773 4.46932617 45.89325195 4.46069336 46.80102539 C4.45618164 47.69370117 4.45166992 48.58637695 4.44702148 49.50610352 C4.43524319 51.70864526 4.418795 53.91105138 4.39819336 56.11352539 C5.79110596 56.09781494 5.79110596 56.09781494 7.2121582 56.08178711 C10.65245026 56.04773335 14.09256363 56.02264046 17.53295898 56.00366211 C19.02289656 55.99359496 20.51281433 55.97994022 22.00268555 55.96264648 C24.14238364 55.93842886 26.28182089 55.92704975 28.42163086 55.91821289 C29.7098877 55.90773926 30.99814453 55.89726562 32.32543945 55.88647461 C35.39819336 56.11352539 35.39819336 56.11352539 37.39819336 58.11352539 C37.52319336 61.23852539 37.52319336 61.23852539 37.39819336 64.11352539 C33.51358289 65.40839555 29.8393538 65.23678579 25.79272461 65.21118164 C24.95351974 65.20976669 24.11431488 65.20835175 23.24967957 65.20689392 C20.5699812 65.20129754 17.89036646 65.18874574 15.21069336 65.17602539 C13.39363727 65.17100992 11.57657988 65.1664471 9.75952148 65.16235352 C5.30571323 65.1513293 0.85196747 65.13406717 -3.60180664 65.11352539 C-4.40416478 56.9238107 -4.7501482 48.82853572 -4.73461914 40.60180664 C-4.73557587 39.46696335 -4.73653259 38.33212006 -4.73751831 37.16288757 C-4.73819324 34.79072005 -4.73638743 32.4185506 -4.73217773 30.04638672 C-4.72676432 26.39750114 -4.73217399 22.7487356 -4.73852539 19.09985352 C-4.73786556 16.78800428 -4.73658638 14.47615513 -4.73461914 12.16430664 C-4.73664337 11.06967606 -4.7386676 9.97504547 -4.74075317 8.84724426 C-4.73760101 7.84497299 -4.73444885 6.84270172 -4.73120117 5.81005859 C-4.73040558 4.92469925 -4.72960999 4.0393399 -4.72879028 3.12715149 C-4.50401544 -0.43718552 -3.71755664 0.11717372 0 0 Z " fill="#424244" transform="translate(262.601806640625,330.886474609375)"/>
<path d="M0 0 C2.55746167 3.84542902 2.26035754 7.81654984 2.20927429 12.25688171 C2.20760516 13.09672208 2.20593602 13.93656245 2.2042163 14.80185252 C2.19613147 17.62022623 2.17359304 20.43829876 2.15112305 23.2565918 C2.14233524 25.2752345 2.13442189 27.29388118 2.12731934 29.31253052 C2.10539884 34.79779922 2.0708437 40.28292341 2.03379035 45.76810813 C1.9969195 51.49981648 1.97068187 57.23157409 1.94306946 62.96333313 C1.89511488 72.58636161 1.83934389 82.20931982 1.77856445 91.83227539 C1.70825212 102.97378522 1.64846451 114.11531168 1.59470528 125.25691289 C1.53746117 137.09984879 1.4726453 148.94273436 1.40554833 160.78561807 C1.38667291 164.2075297 1.36921335 167.62944616 1.3520565 171.05136681 C1.32477375 176.41687041 1.29243431 181.78232025 1.25609589 187.14776993 C1.24349662 189.12272568 1.23260524 191.09769313 1.22349739 193.07266808 C1.21082505 195.75652227 1.19207963 198.44026434 1.17167664 201.12406921 C1.16933429 201.91607229 1.16699194 202.70807537 1.16457862 203.52407855 C1.11417967 208.88582033 1.11417967 208.88582033 0 210 C-2.07560806 210.09683581 -4.15457204 210.12186902 -6.23243713 210.12025452 C-7.21750496 210.12153854 -7.21750496 210.12153854 -8.22247314 210.12284851 C-10.44594983 210.12451324 -12.66935239 210.1189647 -14.89282227 210.11352539 C-16.5049257 210.11321929 -18.11702928 210.11335215 -19.72913265 210.11389065 C-24.06136371 210.11411718 -28.39356736 210.10830516 -32.72579193 210.10128021 C-36.78525381 210.09560151 -40.84470888 210.09531798 -44.9041748 210.09460449 C-56.79028686 210.08934911 -68.67639377 210.07538807 -80.5625 210.0625 C-107.106875 210.041875 -133.65125 210.02125 -161 210 C-161 152.58 -161 95.16 -161 36 C-153.41 36 -145.82 36 -138 36 C-138 85.17 -138 134.34 -138 185 C-138.33 185 -138.66 185 -139 185 C-139 136.82 -139 88.64 -139 39 C-142.96 39 -146.92 39 -151 39 C-154.96 38.505 -154.96 38.505 -159 38 C-159 93.44 -159 148.88 -159 206 C-80.79 206.495 -80.79 206.495 -1 207 C-1.020625 187.32375 -1.04125 167.6475 -1.0625 147.375 C-1.0747946 123.61553206 -1.0747946 123.61553206 -1.06640625 111.90234375 C-1.06593143 111.19695426 -1.0654566 110.49156476 -1.06496739 109.76479983 C-1.04600306 83.48686759 -0.88245068 57.21289536 -0.5 30.9375 C-0.48206327 29.7040749 -0.48206327 29.7040749 -0.46376419 28.44573212 C-0.32455692 18.96355007 -0.17197263 9.48165025 0 0 Z " fill="#F76B7C" transform="translate(418,78)"/>
<path d="M0 0 C6.0546875 -0.1953125 6.0546875 -0.1953125 8 0 C10.76223278 2.76223278 10.57856291 5.20706617 11 9 C11.99 9.33 12.98 9.66 14 10 C13.67 10.66 13.34 11.32 13 12 C13.66 12 14.32 12 15 12 C15.1953125 14.05078125 15.390625 16.1015625 15.5859375 18.15234375 C15.79089844 19.06693359 15.79089844 19.06693359 16 20 C16.66 20.33 17.32 20.66 18 21 C18.625 24.0625 18.625 24.0625 19 27 C19.66 27 20.32 27 21 27 C21 27.66 21 28.32 21 29 C21.66 29.33 22.32 29.66 23 30 C23.39460023 32.32375692 23.72230092 34.6593935 24 37 C24.30903983 38.33917261 24.62942911 39.67653254 25 41 C25.66 41 26.32 41 27 41 C27 42.32 27 43.64 27 45 C27.99 45.495 27.99 45.495 29 46 C29.39764263 47.98821313 29.72428861 49.99124558 30 52 C30.31674575 53.33737094 30.64270064 54.67288808 31 56 C31.66 56 32.32 56 33 56 C33 56.99 33 57.98 33 59 C33.66 59.66 34.32 60.32 35 61 C34.625 63.125 34.625 63.125 34 65 C27.60344828 65.36206897 27.60344828 65.36206897 25.125 63.875 C23.61088481 61.35147468 23.43910258 58.88553124 23 56 C22.01 55.505 22.01 55.505 21 55 C21.33 53.68 21.66 52.36 22 51 C21.34 51 20.68 51 20 51 C20 50.34 20 49.68 20 49 C9.77 48.67 -0.46 48.34 -11 48 C-12.41223129 52.94925201 -12.41223129 52.94925201 -13 58 C-15 60 -15 60 -17 61 C-17 62.32 -17 63.64 -17 65 C-19.31 65 -21.62 65 -24 65 C-24.33 63.35 -24.66 61.7 -25 60 C-24.34 60 -23.68 60 -23 60 C-22.7834375 58.39125 -22.7834375 58.39125 -22.5625 56.75 C-21.70588235 51.03921569 -21.70588235 51.03921569 -21 49 C-20.01 48.505 -20.01 48.505 -19 48 C-18.835 47.01 -18.67 46.02 -18.5 45 C-18.335 44.01 -18.17 43.02 -18 42 C-17.01 41.505 -17.01 41.505 -16 41 C-16 40.01 -16 39.02 -16 38 C-15.34 38 -14.68 38 -14 38 C-13.855625 37.113125 -13.71125 36.22625 -13.5625 35.3125 C-13.08980022 32.52882354 -12.56929815 29.76516243 -12 27 C-11.34 27 -10.68 27 -10 27 C-10 26.01 -10 25.02 -10 24 C-9.34 24 -8.68 24 -8 24 C-8.20625 23.38125 -8.4125 22.7625 -8.625 22.125 C-8.74875 21.42375 -8.8725 20.7225 -9 20 C-8.34 19.34 -7.68 18.68 -7 18 C-6.835 17.34 -6.67 16.68 -6.5 16 C-6 14 -6 14 -4 12 C-4 11.01 -4 10.02 -4 9 C-3.34 9 -2.68 9 -2 9 C-2.33 8.01 -2.66 7.02 -3 6 C-2.34 6 -1.68 6 -1 6 C-0.67 4.02 -0.34 2.04 0 0 Z M4 11 C3.67 12.32 3.34 13.64 3 15 C2.34 15 1.68 15 1 15 C0.26919734 16.97746603 -0.39421747 18.98072489 -1 21 C-0.67 21.66 -0.34 22.32 0 23 C-0.66 23 -1.32 23 -2 23 C-2.33 25.31 -2.66 27.62 -3 30 C-3.66 30 -4.32 30 -5 30 C-5.5345256 31.24420647 -6.05208611 32.49570936 -6.5625 33.75 C-6.99755859 34.79414063 -6.99755859 34.79414063 -7.44140625 35.859375 C-8.26293696 38.30720964 -8.26293696 38.30720964 -7 42 C0.59 42 8.18 42 16 42 C16 38.72724974 15.70074844 36.153368 15 33 C14.01 33 13.02 33 12 33 C12.20625 32.4225 12.4125 31.845 12.625 31.25 C13.08661261 28.48032433 12.42944945 27.35438733 11 25 C10.34 25 9.68 25 9 25 C9.33 23.68 9.66 22.36 10 21 C9.34 21 8.68 21 8 21 C8.226875 20.46375 8.45375 19.9275 8.6875 19.375 C9.13958145 15.93918099 7.67178015 13.94233306 6 11 C5.34 11 4.68 11 4 11 Z " fill="#3F3E3F" transform="translate(412,331)"/>
<path d="M0 0 C6.0546875 -0.1953125 6.0546875 -0.1953125 8 0 C10 2 10 2 10 6 C10.66 6 11.32 6 12 6 C12 6.66 12 7.32 12 8 C12.66 8.66 13.32 9.32 14 10 C13.67 10.66 13.34 11.32 13 12 C13.66 12 14.32 12 15 12 C15.1953125 14.05078125 15.390625 16.1015625 15.5859375 18.15234375 C15.79089844 19.06693359 15.79089844 19.06693359 16 20 C16.66 20.33 17.32 20.66 18 21 C18.625 24.0625 18.625 24.0625 19 27 C19.66 27 20.32 27 21 27 C21 28.32 21 29.64 21 31 C21.9793879 32.02019573 22.97895449 33.02149805 24 34 C24 34.99 24 35.98 24 37 C24.99 37.495 24.99 37.495 26 38 C25.67 39.32 25.34 40.64 25 42 C25.66 42 26.32 42 27 42 C27 42.99 27 43.98 27 45 C27.66 45 28.32 45 29 45 C29.144375 46.051875 29.28875 47.10375 29.4375 48.1875 C29.87526966 51.15460549 30.37804866 54.06794366 31 57 C31.66 57 32.32 57 33 57 C33 57.99 33 58.98 33 60 C33.99 60.495 33.99 60.495 35 61 C34.67 62.32 34.34 63.64 34 65 C31.69 65 29.38 65 27 65 C27 64.34 27 63.68 27 63 C26.01 62.67 25.02 62.34 24 62 C24.33 61.01 24.66 60.02 25 59 C24.34 59 23.68 59 23 59 C22.505 55.535 22.505 55.535 22 52 C21.34 52 20.68 52 20 52 C20.33 50.68 20.66 49.36 21 48 C5.16 48.495 5.16 48.495 -11 49 C-13.09157371 55.10715633 -13.09157371 55.10715633 -13 58 C-15 60 -15 60 -17 61 C-16.67 62.32 -16.34 63.64 -16 65 C-18.64 65 -21.28 65 -24 65 C-24.33 63.35 -24.66 61.7 -25 60 C-24.34 60 -23.68 60 -23 60 C-22.7834375 58.39125 -22.7834375 58.39125 -22.5625 56.75 C-21.70588235 51.03921569 -21.70588235 51.03921569 -21 49 C-20.01 48.505 -20.01 48.505 -19 48 C-19 47.01 -19 46.02 -19 45 C-18.34 45 -17.68 45 -17 45 C-17.495 43.515 -17.495 43.515 -18 42 C-17.01 41.505 -17.01 41.505 -16 41 C-16 40.01 -16 39.02 -16 38 C-15.34 38 -14.68 38 -14 38 C-13.67 35.36 -13.34 32.72 -13 30 C-12.34 30 -11.68 30 -11 30 C-11.33 29.01 -11.66 28.02 -12 27 C-11.01 27 -10.02 27 -9 27 C-9.33 26.01 -9.66 25.02 -10 24 C-7.60759494 18.30379747 -7.60759494 18.30379747 -5 17 C-4.53476937 15.10466658 -4.53476937 15.10466658 -4.375 12.9375 C-4.25125 11.638125 -4.1275 10.33875 -4 9 C-3.34 9 -2.68 9 -2 9 C-1.34 6.03 -0.68 3.06 0 0 Z M2 11 C2.33 12.65 2.66 14.3 3 16 C2.34 16 1.68 16 1 16 C-1.04301154 20.52381127 -2.00956295 25.16371695 -3 30 C-3.66 30 -4.32 30 -5 30 C-5.50833591 31.24663331 -6.00631145 32.49749387 -6.5 33.75 C-6.7784375 34.44609375 -7.056875 35.1421875 -7.34375 35.859375 C-8.19540327 38.26422695 -8.19540327 38.26422695 -8 42 C-0.08 42 7.84 42 16 42 C16 38.70772079 15.84985257 36.14445451 15 33 C14.34 32.67 13.68 32.34 13 32 C12.375 28.9375 12.375 28.9375 12 26 C11.01 25.67 10.02 25.34 9 25 C9.33 23.68 9.66 22.36 10 21 C9.34 21 8.68 21 8 21 C8.226875 20.46375 8.45375 19.9275 8.6875 19.375 C9.13958145 15.93918099 7.67178015 13.94233306 6 11 C4.68 11 3.36 11 2 11 Z " fill="#403F40" transform="translate(160,331)"/>
<path d="M0 0 C0 9 0 18 0 27 C4.84334651 22.93380938 9.47997554 18.67018309 14 14.25 C14.49282471 13.77844482 14.98564941 13.30688965 15.4934082 12.82104492 C16.72186814 11.60474151 17.86811874 10.30665704 19 9 C19 8.01 19 7.02 19 6 C19.66 6 20.32 6 21 6 C21 5.34 21 4.68 21 4 C26.39068413 0.40621058 29.53673535 -0.45356243 36 0 C34.4092437 3.95035893 31.82479373 6.33015274 28.7734375 9.24609375 C27.73135052 10.25803088 26.68969676 11.27041431 25.6484375 12.28320312 C24.00959912 13.8661832 22.36718943 15.44493453 20.71679688 17.01586914 C19.12030834 18.53981164 17.53989916 20.07902725 15.9609375 21.62109375 C15.01009277 22.5330249 14.05924805 23.44495605 13.07958984 24.38452148 C10.79267355 26.81099248 10.79267355 26.81099248 10.59863281 29.74609375 C10.78835431 32.06877201 10.78835431 32.06877201 12.4609375 33.44140625 C13.09257813 33.81136719 13.72421875 34.18132812 14.375 34.5625 C17.29724371 36.43226559 18.74081227 37.68032326 20 41 C20.66 41.66 21.32 42.32 22 43 C22.804375 44.36125 22.804375 44.36125 23.625 45.75 C25.85813744 49.19661589 28.75838751 51.27887652 32.09765625 53.60546875 C36.59105388 56.89939679 37.65547526 59.51847607 39 65 C37.3973218 65.10824843 35.79254252 65.18570645 34.1875 65.25 C33.29417969 65.29640625 32.40085937 65.3428125 31.48046875 65.390625 C29 65 29 65 27.17578125 63.109375 C26 61 26 61 26 59 C25.40058594 58.92523438 24.80117188 58.85046875 24.18359375 58.7734375 C21.23146396 57.72778151 20.62371367 56.29765941 19.0625 53.625 C16.73791117 49.89031794 14.89684069 48.1154278 11 46 C10.64587656 44.67203709 10.31478446 43.33783393 10 42 C7.71522701 39.46822452 5.4420504 37.32257732 2.6875 35.3125 C2.130625 34.879375 1.57375 34.44625 1 34 C1 33.34 1 32.68 1 32 C0.34 32 -0.32 32 -1 32 C-0.67 32.66 -0.34 33.32 0 34 C0.08573394 36.25120742 0.10712188 38.50499303 0.09765625 40.7578125 C0.0962413 41.42086395 0.09482635 42.08391541 0.09336853 42.76705933 C0.08776754 44.88641863 0.075215 47.00567259 0.0625 49.125 C0.05748512 50.56119639 0.05292219 51.99739444 0.04882812 53.43359375 C0.03779782 56.95576345 0.02053259 60.47787145 0 64 C-2 65 -2 65 -8 65 C-8.33 43.88 -8.66 22.76 -9 1 C-4.82091936 -1.08954032 -4.19589427 -1.16552619 0 0 Z " fill="#403F41" transform="translate(537,331)"/>
<path d="M0 0 C14.85 0.33 29.7 0.66 45 1 C45.495 4.96 45.495 4.96 46 9 C45.34 9 44.68 9 44 9 C42.88842985 11.07493094 42.03628989 12.79435726 41.625 15.125 C41 17 41 17 38.9375 18.25 C38.298125 18.4975 37.65875 18.745 37 19 C37 19.99 37 20.98 37 22 C36.01 22.33 35.02 22.66 34 23 C34 24.32 34 25.64 34 27 C32.34467377 28.01866229 30.67739862 29.01810813 29 30 C28.12177688 32.08533633 28.12177688 32.08533633 28 34 C27.01 34 26.02 34 25 34 C24.71125 34.721875 24.4225 35.44375 24.125 36.1875 C23.08333333 38.79166667 22.04166667 41.39583333 21 44 C20.01 44 19.02 44 18 44 C17.896875 44.94875 17.79375 45.8975 17.6875 46.875 C17 50 17 50 14 52 C14 52.66 14 53.32 14 54 C12.02 54.495 12.02 54.495 10 55 C10.33 55.66 10.66 56.32 11 57 C22.22 57 33.44 57 45 57 C45 59.97 45 62.94 45 66 C30.15 66 15.3 66 0 66 C0 55.875 0 55.875 2 52 C2.99 52 3.98 52 5 52 C5.103125 51.401875 5.20625 50.80375 5.3125 50.1875 C6.10669061 47.66052987 7.15277041 46.84722959 9 45 C10.19027984 42.40084462 10.19027984 42.40084462 11 40 C11.66 40 12.32 40 13 40 C13 38.68 13 37.36 13 36 C13.60714844 35.7628125 14.21429688 35.525625 14.83984375 35.28125 C17.51066188 33.69711194 18.20336978 32.26311622 19.5625 29.5 C21.20470616 26.18328199 21.81617571 25.12254952 25 23 C25.165 22.319375 25.33 21.63875 25.5 20.9375 C25.665 20.298125 25.83 19.65875 26 19 C26.99 18.67 27.98 18.34 29 18 C29 16.68 29 15.36 29 14 C30.66666667 13 32.33333333 12 34 11 C34 9.68 34 8.36 34 7 C22.78 7 11.56 7 0 7 C0 4.69 0 2.38 0 0 Z " fill="#424143" transform="translate(200,330)"/>
<path d="M0 0 C15.84 0 31.68 0 48 0 C47.67 0.99 47.34 1.98 47 3 C32.15 3 17.3 3 2 3 C2.01047363 7.44259277 2.02094727 11.88518555 2.03173828 16.46240234 C2.06481178 31.10680378 2.08704482 45.75120664 2.10362434 60.3956356 C2.11394766 69.27842484 2.12802809 78.16117875 2.15087891 87.04394531 C2.17078055 94.78395664 2.18370875 102.5239424 2.18817699 110.2639786 C2.19078986 114.36426433 2.196953 118.46447689 2.21146011 122.56473923 C2.22499314 126.42077767 2.22923137 130.27671251 2.22621536 134.13277245 C2.22676745 135.55098851 2.23077034 136.9692079 2.23841095 138.38740349 C2.24830474 140.3178446 2.24479053 142.24834078 2.24050903 144.17880249 C2.24235262 145.26098745 2.24419621 146.34317242 2.24609566 147.45815086 C2 150 2 150 0 152 C-7.59 152 -15.18 152 -23 152 C-23.33 102.5 -23.66 53 -24 2 C-22.35 2 -20.7 2 -19 2 C-19.33 50.18 -19.66 98.36 -20 148 C-14.06 148 -8.12 148 -2 148 C-2 99.82 -2 51.64 -2 2 C-1.34 2 -0.68 2 0 2 C0 1.34 0 0.68 0 0 Z " fill="#FF5562" transform="translate(314,100)"/>
<path d="M0 0 C0.33 0 0.66 0 1 0 C1 61.38 1 122.76 1 186 C-14.84 186 -30.68 186 -47 186 C-51.27824686 173.16525941 -49.12900092 156.68566869 -49.09765625 143.34765625 C-49.09578742 140.99254893 -49.09436571 138.63744122 -49.09336853 136.28233337 C-49.08957998 130.13236385 -49.07978165 123.98241855 -49.06866455 117.8324585 C-49.05655604 110.42744701 -49.05203073 103.02242734 -49.04621124 95.61740875 C-49.03656739 84.41158907 -49.01738535 73.20582237 -49 62 C-49.33 82.79 -49.66 103.58 -50 125 C-50.33 125 -50.66 125 -51 125 C-51 96.62 -51 68.24 -51 39 C-56.61 39 -62.22 39 -68 39 C-67.99777939 40.83718597 -67.99555878 42.67437195 -67.99327087 44.56723022 C-67.97303832 61.84336308 -67.95796732 79.11949356 -67.94818783 96.3956356 C-67.94302618 105.27841034 -67.93598596 114.16117624 -67.92456055 123.04394531 C-67.91460973 130.78395647 -67.90814562 138.52396123 -67.90591151 146.2639786 C-67.90460508 150.36424019 -67.90152349 154.46448349 -67.89426994 158.56473923 C-67.88750347 162.42075714 -67.88538433 166.27674916 -67.88689232 170.13277245 C-67.88661627 171.55098422 -67.88461486 172.96919683 -67.88079453 174.38740349 C-67.87584758 176.31786352 -67.87760473 178.24833731 -67.87974548 180.17880249 C-67.87882369 181.26098745 -67.8779019 182.34317242 -67.87695217 183.45815086 C-68 186 -68 186 -69 188 C-84.51 188 -100.02 188 -116 188 C-116 187.01 -116 186.02 -116 185 C-100.82 185 -85.64 185 -70 185 C-70.00523682 180.77058594 -70.01047363 176.54117188 -70.01586914 172.18359375 C-70.03243875 158.20978038 -70.04353571 144.23596662 -70.05181217 130.262146 C-70.05696379 121.78983051 -70.06398486 113.31752435 -70.07543945 104.84521484 C-70.08542096 97.45892804 -70.09186168 90.072648 -70.09408849 82.68635464 C-70.09538971 78.77704978 -70.09843825 74.86776423 -70.10573006 70.95846558 C-70.112545 67.27479156 -70.11460586 63.59114471 -70.11310768 59.90746498 C-70.1135116 57.9194415 -70.11887817 55.93142095 -70.12442017 53.94340515 C-70.1230455 52.74601212 -70.12167084 51.54861908 -70.12025452 50.31494141 C-70.12117631 49.28253326 -70.1220981 48.25012512 -70.12304783 47.18643188 C-69.97843936 43.44166828 -69.46482695 39.7186156 -69 36 C-61.41 36 -53.82 36 -46 36 C-45.67 84.84 -45.34 133.68 -45 184 C-30.48 184 -15.96 184 -1 184 C-0.67 123.28 -0.34 62.56 0 0 Z " fill="#F15766" transform="translate(396,78)"/>
<path d="M0 0 C0.66 0 1.32 0 2 0 C2 68.97 2 137.94 2 209 C8.27 209 14.54 209 21 209 C20.99777939 206.73099319 20.99555878 204.46198639 20.99327087 202.1242218 C20.97285138 180.77265027 20.95796126 159.42108002 20.94818783 138.06950092 C20.9430294 127.09165881 20.93599529 116.11382385 20.92456055 105.13598633 C20.91459991 95.56880428 20.90814327 86.00162741 20.90591151 76.43444031 C20.90460675 71.3677231 20.9015357 66.30102071 20.89426994 61.23430824 C20.88748801 56.46640034 20.88538749 51.69851339 20.88689232 46.93060112 C20.88661697 45.17985037 20.88462473 43.42909893 20.88079453 41.67835236 C20.87582337 39.28910789 20.87701439 36.89994269 20.87974548 34.51069641 C20.87683264 33.81710803 20.8739198 33.12351965 20.87091869 32.40891343 C20.88203763 28.81289235 21.15167217 25.49777546 22 22 C23.65 22 25.3 22 27 22 C27.33 23.32 27.66 24.64 28 26 C26.35 26 24.7 26 23 26 C23 86.72 23 147.44 23 210 C15.41 210 7.82 210 0 210 C0 140.7 0 71.4 0 0 Z " fill="#F78292" transform="translate(222,78)"/>
<path d="M0 0 C2.97 0 5.94 0 9 0 C9 21.45 9 42.9 9 65 C5.7 65 2.4 65 -1 65 C-1.99 64.01 -2.98 63.02 -4 62 C-3.67 61.34 -3.34 60.68 -3 60 C-4.32 59.67 -5.64 59.34 -7 59 C-7.2165625 58.1028125 -7.2165625 58.1028125 -7.4375 57.1875 C-8.49735611 52.82769778 -8.49735611 52.82769778 -12 50 C-12.1875 46.875 -12.1875 46.875 -12 44 C-10.68 44.33 -9.36 44.66 -8 45 C-8 45.99 -8 46.98 -8 48 C-7.21625 48.12375 -6.4325 48.2475 -5.625 48.375 C-3 49 -3 49 -1 51 C-0.67 51.66 -0.34 52.32 0 53 C0 35.51 0 18.02 0 0 Z " fill="#363635" transform="translate(502,331)"/>
<path d="M0 0 C7.59 0 15.18 0 23 0 C23 49.17 23 98.34 23 149 C22.67 149 22.34 149 22 149 C22 100.82 22 52.64 22 3 C18.04 3 14.08 3 10 3 C7.36 2.67 4.72 2.34 2 2 C2 57.44 2 112.88 2 170 C80.21 170.495 80.21 170.495 160 171 C160 171.33 160 171.66 160 172 C107.2 172 54.4 172 0 172 C0 115.24 0 58.48 0 0 Z " fill="#F45C6A" transform="translate(257,114)"/>
<path d="M0 0 C1.60279192 0.00015914 3.20558896 0.00585476 4.80834961 0.01586914 C5.65038437 0.01728409 6.49241913 0.01869904 7.35997009 0.02015686 C10.06024671 0.02577276 12.76044163 0.03832791 15.46069336 0.05102539 C17.28686404 0.05603834 19.11303602 0.06060161 20.93920898 0.06469727 C25.42556878 0.07574735 29.9118672 0.0930226 34.39819336 0.11352539 C35.39819336 2.11352539 35.39819336 2.11352539 34.39819336 6.11352539 C23.83819336 6.11352539 13.27819336 6.11352539 2.39819336 6.11352539 C2.39819336 12.05352539 2.39819336 17.99352539 2.39819336 24.11352539 C1.73819336 24.44352539 1.07819336 24.77352539 0.39819336 25.11352539 C-1.48905321 33.1480274 -0.71708272 42.05417265 -0.66430664 50.23852539 C-0.65927803 51.59008622 -0.65471755 52.94164887 -0.65063477 54.29321289 C-0.63894375 57.56669804 -0.62255693 60.84008725 -0.60180664 64.11352539 C-1.59180664 64.11352539 -2.58180664 64.11352539 -3.60180664 64.11352539 C-4.45220506 56.28876886 -4.74939923 48.56710082 -4.73461914 40.69946289 C-4.73557587 39.56320465 -4.73653259 38.42694641 -4.73751831 37.2562561 C-4.73819389 34.87811222 -4.7363834 32.49996643 -4.73217773 30.12182617 C-4.72677049 26.46407015 -4.73216918 22.80643415 -4.73852539 19.14868164 C-4.73786547 16.83227512 -4.73658611 14.51586867 -4.73461914 12.19946289 C-4.73664337 11.10169525 -4.7386676 10.00392761 -4.74075317 8.87289429 C-4.73760101 7.86739532 -4.73444885 6.86189636 -4.73120117 5.82592773 C-4.73040558 4.93755219 -4.72960999 4.04917664 -4.72879028 3.13388062 C-4.50442206 -0.43589812 -3.72373541 0.11736847 0 0 Z " fill="#3D3C3D" transform="translate(262.601806640625,330.886474609375)"/>
<path d="M0 0 C7.59 0 15.18 0 23 0 C23 48.18 23 96.36 23 146 C22.67 146 22.34 146 22 146 C21.67 98.15 21.34 50.3 21 1 C14.4 1 7.8 1 1 1 C1.00222061 2.86224213 1.00444122 4.72448425 1.00672913 6.64315796 C1.02696152 24.15474922 1.0420326 41.66633814 1.05181217 59.17793846 C1.05697387 68.18178145 1.06401417 77.18561573 1.07543945 86.18945312 C1.08539014 94.0349397 1.09185435 101.88041998 1.09408849 109.72591269 C1.09539494 113.88206553 1.09847667 118.03820032 1.10573006 122.19434738 C1.11249633 126.10289486 1.11461571 130.01141678 1.11310768 133.91996956 C1.11338373 135.357532 1.11538527 136.79509527 1.11920547 138.23265266 C1.1241521 140.18938714 1.12239534 142.1461352 1.12025452 144.10287476 C1.12163721 145.74827523 1.12163721 145.74827523 1.12304783 147.42691612 C1 150 1 150 0 152 C-15.51 152 -31.02 152 -47 152 C-47 151.01 -47 150.02 -47 149 C-31.82 149 -16.64 149 -1 149 C-1.00523682 144.77058594 -1.01047363 140.54117188 -1.01586914 136.18359375 C-1.03243875 122.20978038 -1.04353571 108.23596662 -1.05181217 94.262146 C-1.05696379 85.78983051 -1.06398486 77.31752435 -1.07543945 68.84521484 C-1.08542096 61.45892804 -1.09186168 54.072648 -1.09408849 46.68635464 C-1.09538971 42.77704978 -1.09843825 38.86776423 -1.10573006 34.95846558 C-1.112545 31.27479156 -1.11460586 27.59114471 -1.11310768 23.90746498 C-1.1135116 21.9194415 -1.11887817 19.93142095 -1.12442017 17.94340515 C-1.1230455 16.74601212 -1.12167084 15.54861908 -1.12025452 14.31494141 C-1.12117631 13.28253326 -1.1220981 12.25012512 -1.12304783 11.18643188 C-0.97843936 7.44166828 -0.46482695 3.7186156 0 0 Z " fill="#F36675" transform="translate(327,114)"/>
<path d="M0 0 C1.65 0 3.3 0 5 0 C5.33 1.32 5.66 2.64 6 4 C4.35 4 2.7 4 1 4 C1 64.39 1 124.78 1 187 C0.34 187 -0.32 187 -1 187 C-1.02335023 163.3565028 -1.04098964 139.71300733 -1.05181217 116.06950092 C-1.0569706 105.09165881 -1.06400471 94.11382385 -1.07543945 83.13598633 C-1.08540009 73.56880428 -1.09185673 64.00162741 -1.09408849 54.43444031 C-1.09539325 49.3677231 -1.0984643 44.30102071 -1.10573006 39.23430824 C-1.11251199 34.46640034 -1.11461251 29.69851339 -1.11310768 24.93060112 C-1.11338303 23.17985037 -1.11537527 21.42909893 -1.11920547 19.67835236 C-1.12417663 17.28910789 -1.12298561 14.89994269 -1.12025452 12.51069641 C-1.12316736 11.81710803 -1.1260802 11.12351965 -1.12908131 10.40891343 C-1.11796237 6.81289235 -0.84832783 3.49777546 0 0 Z " fill="#FE717F" transform="translate(244,100)"/>
<path d="M0 0 C0.33 0 0.66 0 1 0 C1 57.42 1 114.84 1 174 C-6.59 174 -14.18 174 -22 174 C-22 126.48 -22 78.96 -22 30 C-21.67 30 -21.34 30 -21 30 C-21 76.2 -21 122.4 -21 170 C-14.07 170.66 -7.14 171.32 0 172 C0 115.24 0 58.48 0 0 Z " fill="#F26371" transform="translate(384,78)"/>
<path d="M0 0 C0.99 0 1.98 0 3 0 C3 56.76 3 113.52 3 172 C2.01 172 1.02 172 0 172 C0 115.24 0 58.48 0 0 Z " fill="#FF525D" transform="translate(381,78)"/>
<path d="M0 0 C0.99 0.495 0.99 0.495 2 1 C2 1.99 2 2.98 2 4 C-2.98994575 5.03060771 -7.62467042 5.05448354 -12.6796875 4.87890625 C-13.89883347 4.84348976 -13.89883347 4.84348976 -15.14260864 4.80735779 C-17.72027272 4.73122314 -20.29759747 4.64698527 -22.875 4.5625 C-24.63019213 4.50922895 -26.38540046 4.45648895 -28.140625 4.40429688 C-32.42729528 4.27567661 -36.71368009 4.13979197 -41 4 C-41 3.34 -41 2.68 -41 2 C-42.65 2 -44.3 2 -46 2 C-46.33 63.71 -46.66 125.42 -47 189 C-53.27 189 -59.54 189 -66 189 C-66 185.37 -66 181.74 -66 178 C-65.67 178 -65.34 178 -65 178 C-65 180.64 -65 183.28 -65 186 C-56.585 186.495 -56.585 186.495 -48 187 C-48.00222061 184.74352127 -48.00444122 182.48704254 -48.00672913 180.16218567 C-48.02714876 158.92834334 -48.04203881 137.69450229 -48.05181217 116.46065235 C-48.05697057 105.54334437 -48.06400461 94.62604359 -48.07543945 83.70874023 C-48.08540019 74.19429589 -48.09185675 64.67985677 -48.09408849 55.16540736 C-48.09539323 50.12663578 -48.09846417 45.08787912 -48.10573006 40.04911232 C-48.11251216 35.30746921 -48.11461247 30.56584718 -48.11310768 25.82419968 C-48.11338302 24.08312427 -48.11537516 22.34204816 -48.11920547 20.60097694 C-48.12417689 18.22486952 -48.12298551 15.8488418 -48.12025452 13.47273254 C-48.12316736 12.78303511 -48.1260802 12.09333768 -48.12908131 11.38274032 C-48.11792925 7.79551839 -47.84528573 4.48930494 -47 1 C-45.68281982 1.00523682 -44.36563965 1.01047363 -43.00854492 1.01586914 C-38.12769244 1.03395149 -33.24684293 1.04544389 -28.3659668 1.05493164 C-26.25235496 1.05996444 -24.13874662 1.0667912 -22.02514648 1.07543945 C-18.98941182 1.08755104 -15.95372314 1.09323881 -12.91796875 1.09765625 C-11.97100632 1.10281754 -11.02404388 1.10797882 -10.04838562 1.11329651 C-9.16769913 1.11337204 -8.28701263 1.11344757 -7.37963867 1.11352539 C-6.60464523 1.115746 -5.82965179 1.11796661 -5.03117371 1.12025452 C-2.79559412 1.07609077 -2.79559412 1.07609077 0 0 Z " fill="#FE4D5E" transform="translate(290,98)"/>
<path d="M0 0 C0.99 0.66 1.98 1.32 3 2 C3.36076355 4.02481079 3.36076355 4.02481079 3.34057617 6.54150391 C3.34034958 7.48232819 3.34012299 8.42315247 3.33988953 9.39248657 C3.32440567 10.41023163 3.30892181 11.42797668 3.29296875 12.4765625 C3.28872391 13.51694672 3.28447906 14.55733093 3.28010559 15.62924194 C3.26327482 18.96142147 3.22561422 22.29300241 3.1875 25.625 C3.17245887 27.88019962 3.15876947 30.13540869 3.14648438 32.390625 C3.11335699 37.92728855 3.0631142 43.46360152 3 49 C2.34 49 1.68 49 1 49 C1 50.32 1 51.64 1 53 C-0.98 53 -2.96 53 -5 53 C-5 52.67 -5 52.34 -5 52 C-3.35 52 -1.7 52 0 52 C0 51.01 0 50.02 0 49 C-0.66 49 -1.32 49 -2 49 C-2 33.16 -2 17.32 -2 1 C-1.34 0.67 -0.68 0.34 0 0 Z " fill="#4E4F52" transform="translate(66,343)"/>
<path d="M0 0 C15.84 0 31.68 0 48 0 C47.67 0.99 47.34 1.98 47 3 C32.15 3 17.3 3 2 3 C2 51.51 2 100.02 2 150 C1.34 150 0.68 150 0 150 C-0.15380042 130.73778203 -0.30183642 111.47552806 -0.4429636 92.21321297 C-0.50862292 83.26988539 -0.57618609 74.32657969 -0.64819336 65.38330078 C-0.71093209 57.59057749 -0.77013728 49.79783684 -0.82505554 42.00505435 C-0.85427305 37.8768293 -0.88528959 33.74863506 -0.92053413 29.6204567 C-0.95362334 25.73820331 -0.98200278 21.85594453 -1.00670624 17.973629 C-1.01663399 16.54572982 -1.02831044 15.11784161 -1.04183006 13.68997192 C-1.05997581 11.74640632 -1.07132782 9.80278077 -1.08229065 7.85916138 C-1.09058679 6.76960207 -1.09888292 5.68004276 -1.10743046 4.55746651 C-1 2 -1 2 0 0 Z " fill="#E98597" transform="translate(314,100)"/>
<path d="M0 0 C0.33 0.66 0.66 1.32 1 2 C1.99 2 2.98 2 4 2 C4.33 2.66 4.66 3.32 5 4 C5.33 3.34 5.66 2.68 6 2 C7.32 2.33 8.64 2.66 10 3 C10.33 4.98 10.66 6.96 11 9 C11.66 9 12.32 9 13 9 C13 9.66 13 10.32 13 11 C13.66 11.33 14.32 11.66 15 12 C15.39460023 14.32375692 15.72230092 16.6593935 16 19 C16.30903983 20.33917261 16.62942911 21.67653254 17 23 C17.66 23 18.32 23 19 23 C18.67 24.32 18.34 25.64 18 27 C18 26.34 18 25.68 18 25 C17.01 24.67 16.02 24.34 15 24 C14.67 23.67 14.34 23.34 14 23 C13.01 22.67 12.02 22.34 11 22 C9.65909241 21.34870203 8.32407669 20.68486725 7 20 C7.33 19.34 7.66 18.68 8 18 C7.34 17.67 6.68 17.34 6 17 C6.33 16.34 6.66 15.68 7 15 C6.01 15 5.02 15 4 15 C3.67 12.36 3.34 9.72 3 7 C2.34 7 1.68 7 1 7 C1.33 5.68 1.66 4.36 2 3 C1.34 3 0.68 3 0 3 C0 2.01 0 1.02 0 0 Z " fill="#444645" transform="translate(420,349)"/>
<path d="M0 0 C0.66 0 1.32 0 2 0 C2 49.17 2 98.34 2 149 C11.9 148.505 11.9 148.505 22 148 C22.99 148 23.98 148 25 148 C24.67 148.66 24.34 149.32 24 150 C16.41 150 8.82 150 1 150 C0.67 100.5 0.34 51 0 0 Z " fill="#E16776" transform="translate(290,102)"/>
<path d="M0 0 C1.98 0 3.96 0 6 0 C5.01 0.495 5.01 0.495 4 1 C4.33 1.66 4.66 2.32 5 3 C5.08573394 5.25120742 5.10712188 7.50499303 5.09765625 9.7578125 C5.0962413 10.42086395 5.09482635 11.08391541 5.09336853 11.76705933 C5.08776754 13.88641863 5.075215 16.00567259 5.0625 18.125 C5.05748512 19.56119639 5.05292219 20.99739444 5.04882812 22.43359375 C5.03779782 25.95576345 5.02053259 29.47787145 5 33 C4.01 33.495 4.01 33.495 3 34 C2.01 33.67 1.02 33.34 0 33 C0 22.11 0 11.22 0 0 Z " fill="#484448" transform="translate(532,362)"/>
<path d="M0 0 C2.05078125 0.03255208 4.1015625 0.06510417 6.15234375 0.09765625 C4.61316365 3.7651763 2.39748923 6.08346198 -0.41796875 8.86328125 C-1.31386719 9.75273437 -2.20976563 10.6421875 -3.1328125 11.55859375 C-4.06996094 12.47898437 -5.00710938 13.399375 -5.97265625 14.34765625 C-6.92754262 15.29250481 -7.88197484 16.23781258 -8.8359375 17.18359375 C-11.16874712 19.49283963 -13.50609711 21.79728828 -15.84765625 24.09765625 C-18.32265625 23.10765625 -18.32265625 23.10765625 -20.84765625 22.09765625 C-10.05818257 9.20291941 -10.05818257 9.20291941 -5.84765625 7.09765625 C-4.81473949 5.11445607 -3.81390635 3.11417819 -2.84765625 1.09765625 C-1.84765625 0.09765625 -1.84765625 0.09765625 0 0 Z " fill="#3A3A3A" transform="translate(566.84765625,330.90234375)"/>
<path d="M0 0 C2.97 0 5.94 0 9 0 C9 21.45 9 42.9 9 65 C5.7 65 2.4 65 -1 65 C-1.99 64.01 -2.98 63.02 -4 62 C-2.35 61.34 -0.7 60.68 1 60 C0.67 61.32 0.34 62.64 0 64 C2.64 64 5.28 64 8 64 C8 43.21 8 22.42 8 1 C5.69 1 3.38 1 1 1 C1 17.17 1 33.34 1 50 C0.67 50 0.34 50 0 50 C0 33.5 0 17 0 0 Z " fill="#52535D" transform="translate(502,331)"/>
<path d="M0 0 C0 0.66 0 1.32 0 2 C-8.91 2 -17.82 2 -27 2 C-27 22.79 -27 43.58 -27 65 C-18.75 65 -10.5 65 -2 65 C-1.67 64.01 -1.34 63.02 -1 62 C0.65 62 2.3 62 4 62 C3.67 62.66 3.34 63.32 3 64 C2.01 64 1.02 64 0 64 C0 64.66 0 65.32 0 66 C-9.24 66 -18.48 66 -28 66 C-28 44.55 -28 23.1 -28 1 C-2 0 -2 0 0 0 Z " fill="#424242" transform="translate(366,330)"/>
<path d="M0 0 C9.57 0 19.14 0 29 0 C23.87455265 5.12544735 23.87455265 5.12544735 18.28125 5.1328125 C17.34925781 5.13410156 16.41726562 5.13539063 15.45703125 5.13671875 C14.48121094 5.13285156 13.50539062 5.12898438 12.5 5.125 C11.03626953 5.13080078 11.03626953 5.13080078 9.54296875 5.13671875 C8.14498047 5.13478516 8.14498047 5.13478516 6.71875 5.1328125 C5.86216797 5.13168457 5.00558594 5.13055664 4.12304688 5.12939453 C2 5 2 5 0 4 C0 2.68 0 1.36 0 0 Z " fill="#373737" transform="translate(202,332)"/>
<path d="M0 0 C14.85 0 29.7 0 45 0 C43.68 1.32 42.36 2.64 41 4 C37.375 3.6875 37.375 3.6875 34 3 C33.34 3.33 32.68 3.66 32 4 C32 3.34 32 2.68 32 2 C31.24976563 2.165 30.49953125 2.33 29.7265625 2.5 C24.5961654 3.18835517 19.54378762 3.06477177 14.375 3 C12.3203658 2.97444485 10.26566888 2.95342815 8.2109375 2.9375 C7.30649902 2.92589844 6.40206055 2.91429687 5.47021484 2.90234375 C3.15735668 2.99377914 1.21197871 3.3445989 -1 4 C-0.34 3.67 0.32 3.34 1 3 C0.67 2.01 0.34 1.02 0 0 Z " fill="#FF5261" transform="translate(351,264)"/>
<path d="M0 0 C7.92 0 15.84 0 24 0 C23.67 1.65 23.34 3.3 23 5 C17.72 5 12.44 5 7 5 C7 4.67 7 4.34 7 4 C4.69 3.34 2.38 2.68 0 2 C0 1.34 0 0.68 0 0 Z " fill="#353335" transform="translate(268,360)"/>
<path d="M0 0 C0.33 0 0.66 0 1 0 C1 6.27 1 12.54 1 19 C3.21460938 18.97679687 5.42921875 18.95359375 7.7109375 18.9296875 C9.85220771 18.91409686 11.99347164 18.9019488 14.13476562 18.89013672 C15.6247032 18.88006957 17.11462097 18.86641482 18.60449219 18.84912109 C20.74419028 18.82490347 22.88362753 18.81352436 25.0234375 18.8046875 C26.31169434 18.79421387 27.59995117 18.78374023 28.92724609 18.77294922 C32 19 32 19 34 21 C34.125 24.125 34.125 24.125 34 27 C33.01 27 32.02 27 31 27 C31 25.02 31 23.04 31 21 C20.77 20.67 10.54 20.34 0 20 C0 13.4 0 6.8 0 0 Z " fill="#606171" transform="translate(266,368)"/>
<path d="M0 0 C2 2 2 2 2.22705078 4.98095703 C2.21134033 6.85050049 2.21134033 6.85050049 2.1953125 8.7578125 C2.1924826 9.42086395 2.18965271 10.08391541 2.18673706 10.76705933 C2.17553435 12.88655583 2.15043051 15.00563104 2.125 17.125 C2.11497028 18.56119182 2.10584441 19.99739025 2.09765625 21.43359375 C2.075595 24.95586628 2.04106494 28.47789203 2 32 C1.01 32.495 1.01 32.495 0 33 C-0.99 32.67 -1.98 32.34 -3 32 C-3 31.01 -3 30.02 -3 29 C-2.01 29 -1.02 29 0 29 C0 19.43 0 9.86 0 0 Z " fill="#56565F" transform="translate(535,363)"/>
<path d="M0 0 C2 0 2 0 3.625 1.125 C5.55651159 3.75887944 5.21205536 5.81916956 5 9 C2.03 8.505 2.03 8.505 -1 8 C-0.67 6.35 -0.34 4.7 0 3 C-8.58 3 -17.16 3 -26 3 C-26 2.67 -26 2.34 -26 2 C-17.42 2 -8.84 2 0 2 C0 1.34 0 0.68 0 0 Z " fill="#565459" transform="translate(292,357)"/>
<path d="M0 0 C0.33 0.66 0.66 1.32 1 2 C-0.18683001 5.16488004 -1.77946589 6.89728882 -4.375 9 C-10.26920629 13.96983814 -15.59382413 19.51273149 -21 25 C-21.66 24.67 -22.32 24.34 -23 24 C-22.48501953 23.50072998 -21.97003906 23.00145996 -21.43945312 22.48706055 C-19.11853382 20.22836498 -16.80921037 17.95816235 -14.5 15.6875 C-13.68917969 14.90181641 -12.87835937 14.11613281 -12.04296875 13.30664062 C-11.27597656 12.54931641 -10.50898437 11.79199219 -9.71875 11.01171875 C-9.00654297 10.31522217 -8.29433594 9.61872559 -7.56054688 8.90112305 C-5.6827626 7.02345963 -5.6827626 7.02345963 -6 4 C-5.34 4 -4.68 4 -4 4 C-4 3.34 -4 2.68 -4 2 C-2.68 1.34 -1.36 0.68 0 0 Z " fill="#413F3E" transform="translate(562,333)"/>
<path d="M0 0 C13.86 0 27.72 0 42 0 C42 2.31 42 4.62 42 7 C41.34 6.67 40.68 6.34 40 6 C40 4.68 40 3.36 40 2 C26.47 2 12.94 2 -1 2 C-0.67 1.34 -0.34 0.68 0 0 Z " fill="#FF475C" transform="translate(323,98)"/>
<path d="M0 0 C0.33 0 0.66 0 1 0 C1 2.64 1 5.28 1 8 C6.61 8.33 12.22 8.66 18 9 C18.33 8.01 18.66 7.02 19 6 C19 7.65 19 9.3 19 11 C12.73 11 6.46 11 0 11 C0 7.37 0 3.74 0 0 Z " fill="#FF5768" transform="translate(224,276)"/>
<path d="M0 0 C0.99 0 1.98 0 3 0 C3.08126087 2.08268593 3.13930839 4.16628658 3.1875 6.25 C3.23970703 7.99023438 3.23970703 7.99023438 3.29296875 9.765625 C3 13 3 13 0 17 C0 11.39 0 5.78 0 0 Z " fill="#FF4B5C" transform="translate(397,78)"/>
<path d="M0 0 C1.65 0 3.3 0 5 0 C4.67 0.66 4.34 1.32 4 2 C3.01 2 2.02 2 1 2 C1 2.66 1 3.32 1 4 C-8.24 4 -17.48 4 -27 4 C-27 3.67 -27 3.34 -27 3 C-18.42 3 -9.84 3 -1 3 C-0.67 2.01 -0.34 1.02 0 0 Z " fill="#505157" transform="translate(365,392)"/>
<path d="M0 0 C0.33 0 0.66 0 1 0 C1 10.23 1 20.46 1 31 C0.67 31 0.34 31 0 31 C0 20.77 0 10.54 0 0 Z " fill="#A1A1A1" transform="translate(59,339)"/>
<path d="M0 0 C3.63 0 7.26 0 11 0 C10.67 0.99 10.34 1.98 10 3 C7.03 3 4.06 3 1 3 C0.67 2.01 0.34 1.02 0 0 Z " fill="#2F302F" transform="translate(346,390)"/>
<path d="M0 0 C1.97909398 -0.02686553 3.95828971 -0.04633375 5.9375 -0.0625 C7.03964844 -0.07410156 8.14179688 -0.08570313 9.27734375 -0.09765625 C12 0 12 0 13 1 C13.04080783 2.99958364 13.04254356 5.00045254 13 7 C12.01 7 11.02 7 10 7 C10 5.02 10 3.04 10 1 C6.7 1 3.4 1 0 1 C0 0.67 0 0.34 0 0 Z " fill="#5C5E5F" transform="translate(287,388)"/>
<path d="M0 0 C0.33 0 0.66 0 1 0 C1.02689216 1.47906892 1.04634621 2.95827483 1.0625 4.4375 C1.07410156 5.26121094 1.08570312 6.08492188 1.09765625 6.93359375 C1 9 1 9 0 10 C-1.66617115 10.04063832 -3.33388095 10.042721 -5 10 C-4.34 8.35 -3.68 6.7 -3 5 C-2.34 5 -1.68 5 -1 5 C-0.67 3.35 -0.34 1.7 0 0 Z " fill="#515152" transform="translate(99,365)"/>
<path d="M0 0 C8.91 0 17.82 0 27 0 C27 0.33 27 0.66 27 1 C18.09 1 9.18 1 0 1 C0 0.67 0 0.34 0 0 Z " fill="#A4A4A5" transform="translate(267,366)"/>
<path d="M0 0 C0.33 0 0.66 0 1 0 C1 7.59 1 15.18 1 23 C0.67 23 0.34 23 0 23 C0 15.41 0 7.82 0 0 Z " fill="#A1A2A0" transform="translate(59,371)"/>
<path d="M0 0 C1.32 0.33 2.64 0.66 4 1 C4 3.31 4 5.62 4 8 C3.01 7.67 2.02 7.34 1 7 C1.33 5.68 1.66 4.36 2 3 C1.34 3 0.68 3 0 3 C0 2.01 0 1.02 0 0 Z " fill="#544F53" transform="translate(168,349)"/>
<path d="M0 0 C0.33 0.66 0.66 1.32 1 2 C-0.98 4.31 -2.96 6.62 -5 9 C-5.33 7.68 -5.66 6.36 -6 5 C-5.38125 4.731875 -4.7625 4.46375 -4.125 4.1875 C-1.7004767 3.04443152 -1.7004767 3.04443152 0 0 Z " fill="#4D4D50" transform="translate(219,361)"/>
<path d="M0 0 C0.33 0.66 0.66 1.32 1 2 C0.67 2.99 0.34 3.98 0 5 C-1.98 5 -3.96 5 -6 5 C-5.34 4.67 -4.68 4.34 -4 4 C-4 3.34 -4 2.68 -4 2 C-2.68 1.34 -1.36 0.68 0 0 Z " fill="#57575B" transform="translate(562,333)"/>
<path d="M0 0 C2 1 2 1 2 1 Z " fill="#B0B0B2" transform="translate(532,396)"/>
<path d="" fill="#A2A2A5" transform="translate(0,0)"/>
<path d="" fill="#A0A0A4" transform="translate(0,0)"/>
<path d="" fill="#9FA1A4" transform="translate(0,0)"/>
<path d="" fill="#9D9DA0" transform="translate(0,0)"/>
<path d="" fill="#9798A0" transform="translate(0,0)"/>
<path d="" fill="#A0A0A0" transform="translate(0,0)"/>
<path d="" fill="#A4A6AB" transform="translate(0,0)"/>
<path d="" fill="#9898A3" transform="translate(0,0)"/>
<path d="" fill="#A3A3AB" transform="translate(0,0)"/>
<path d="" fill="#9B9EA8" transform="translate(0,0)"/>
<path d="" fill="#A4A4AB" transform="translate(0,0)"/>
<path d="" fill="#9E9BA1" transform="translate(0,0)"/>
<path d="" fill="#999EA4" transform="translate(0,0)"/>
<path d="" fill="#9DA0A4" transform="translate(0,0)"/>
<path d="" fill="#9B99A0" transform="translate(0,0)"/>
<path d="" fill="#9B99A0" transform="translate(0,0)"/>
<path d="" fill="#9B99A1" transform="translate(0,0)"/>
<path d="" fill="#9D9EA0" transform="translate(0,0)"/>
<path d="" fill="#9D9DA0" transform="translate(0,0)"/>
<path d="" fill="#A09EA3" transform="translate(0,0)"/>
<path d="" fill="#9A99A0" transform="translate(0,0)"/>
<path d="" fill="#9698A1" transform="translate(0,0)"/>
<path d="" fill="#9D9DA0" transform="translate(0,0)"/>
<path d="" fill="#9E9EA4" transform="translate(0,0)"/>
<path d="" fill="#9396A0" transform="translate(0,0)"/>
<path d="" fill="#9B9BA3" transform="translate(0,0)"/>
<path d="" fill="#9A99A0" transform="translate(0,0)"/>
<path d="" fill="#9698A1" transform="translate(0,0)"/>
<path d="" fill="#9699A1" transform="translate(0,0)"/>
<path d="" fill="#A0A3A1" transform="translate(0,0)"/>
<path d="" fill="#9A99A1" transform="translate(0,0)"/>
<path d="" fill="#9899A0" transform="translate(0,0)"/>
<path d="" fill="#9698A1" transform="translate(0,0)"/>
<path d="" fill="#9595A0" transform="translate(0,0)"/>
<path d="" fill="#9B99A0" transform="translate(0,0)"/>
<path d="" fill="#9A99A0" transform="translate(0,0)"/>
<path d="" fill="#9A99A0" transform="translate(0,0)"/>
<path d="" fill="#9EA0A4" transform="translate(0,0)"/>
<path d="" fill="#9898A0" transform="translate(0,0)"/>
</svg>
