<svg xmlns="http://www.w3.org/2000/svg" viewBox="0 0 24 24" width="20" height="20" fill="currentColor"><path d="M12 .5a12 12 0 0 0-3.79 23.39c.6.11.82-.26.82-.58v-2.03c-3.34.73-4.04-1.61-4.04-1.61-.55-1.4-1.35-1.77-1.35-1.77-1.1-.76.08-.75.08-.75 1.22.09 1.86 1.25 1.86 1.25 1.08 1.85 2.83 1.32 3.52 1.01.11-.79.42-1.32.76-1.62-2.66-.3-5.46-1.33-5.46-5.91 0-1.31.47-2.38 1.24-3.22-.12-.31-.54-1.56.12-3.24 0 0 1.01-.32 3.3 1.23a11.46 11.46 0 0 1 6.01 0c2.29-1.55 3.3-1.23 3.3-1.23.66 1.68.24 2.93.12 3.24.77.84 1.24 1.9 1.24 3.22 0 4.59-2.8 5.6-5.47 5.9.43.37.81 1.1.81 2.22v3.29c0 .32.22.7.83.58A12 12 0 0 0 12 .5z"/></svg>
